# xmcd
#
# Track frame offsets: 
#        150
#        17745
#        32940
#        45413
#        65363
#        76891
#        92596
#        110581
#        130254
#        144317
#        168977
#
# Disc length: 2510 seconds
#
# Revision: 0
# Processed by: cddbd v1.5.2PL0 Copyright (c) Steve Scherf et al.
# Submitted via: ExactAudioCopy v1.0b4
#
DISCID=8709cc0b
DTITLE=Bobby Jones and The Mannish Boys - Comin' Back Hard
DYEAR=2009
DGENRE=Blues
TTITLE0=She's The One
TTITLE1=Two Headed Woman
TTITLE2=I Must Be Crazy
TTITLE3=Come In Out Of The Rain
TTITLE4=Get It Over Baby
TTITLE5=I Don't Know
TTITLE6=Tired Of Your Jive
TTITLE7=Cry For Me Baby
TTITLE8=Three Handed Woman
TTITLE9=Mystery Train
TTITLE10=How Long Will It Last
EXTD=
EXTT0=
EXTT1=
EXTT2=
EXTT3=
EXTT4=
EXTT5=
EXTT6=
EXTT7=
EXTT8=
EXTT9=
EXTT10=
PLAYORDER=
